<?xml version="1.0" encoding="UTF-8"?>
<svg id="Ebene_1" data-name="Ebene 1" xmlns="http://www.w3.org/2000/svg" viewBox="0 0 696.97 272.65">
  <defs>
    <style>
      .cls-1 {
        fill: #9e9e9e;
      }

      .cls-1, .cls-2, .cls-3 {
        stroke-width: 0px;
      }

      .cls-2 {
        fill: #ffffff;
      }

      .cls-3 {
        fill: #e02a30;
      }
    </style>
  </defs>
  
  <g id="Content_Group" data-name="Content Group">
    <g>
      <path class="cls-2" d="m41.85,202.42h7.71c2.98.02,5.22,1.3,6.71,3.84.53.85.87,1.75,1.01,2.68.11.94.17,2.55.17,4.85,0,2.44-.09,4.15-.26,5.12-.08.49-.2.93-.36,1.31-.17.37-.38.76-.62,1.17-.65,1.07-1.54,1.96-2.69,2.65-1.14.75-2.53,1.12-4.19,1.12h-7.48v-22.75Zm3.34,19.5h3.99c1.88,0,3.24-.66,4.08-1.99.37-.49.61-1.11.71-1.86.09-.74.14-2.13.14-4.16s-.05-3.4-.14-4.25c-.12-.85-.41-1.55-.86-2.08-.93-1.32-2.24-1.96-3.93-1.92h-3.99v16.26Z"/>
      <path class="cls-2" d="m76.84,220.08h-8.36l-1.69,5.09h-3.54l8.01-22.75h2.8l8.01,22.75h-3.52l-1.71-5.09Zm-.95-3.05l-3.19-9.95h-.06l-3.19,9.95h6.44Z"/>
      <path class="cls-2" d="m90.16,219.66c1.75,1.49,3.84,2.25,6.26,2.27,2.86-.04,4.31-1.1,4.36-3.17.02-1.7-.94-2.72-2.87-3.06-.89-.12-1.86-.26-2.92-.42-1.89-.32-3.34-1.05-4.32-2.17-1.02-1.16-1.53-2.56-1.53-4.22,0-1.99.64-3.59,1.92-4.81,1.24-1.21,2.99-1.82,5.27-1.84,2.74.06,5.12.85,7.14,2.35l-1.86,2.83c-1.65-1.12-3.47-1.71-5.46-1.75-1.03,0-1.88.27-2.57.8-.72.55-1.08,1.37-1.1,2.47,0,.66.25,1.25.74,1.78.49.54,1.28.92,2.37,1.12.6.1,1.43.22,2.48.36,2.07.29,3.59,1.06,4.58,2.3.98,1.22,1.47,2.63,1.47,4.25-.11,4.35-2.69,6.56-7.73,6.62-3.26,0-6.06-1.04-8.41-3.11l2.19-2.59Z"/>
      <path class="cls-3" d="m136.2,215.23h-8.74v9.94h-3.34v-22.75h3.34v9.75h8.74v-9.75h3.34v22.75h-3.34v-9.94Z"/>
      <path class="cls-3" d="m160.39,220.08h-8.36l-1.69,5.09h-3.54l8.01-22.75h2.8l8.01,22.75h-3.52l-1.71-5.09Zm-.95-3.05l-3.19-9.95h-.06l-3.19,9.95h6.44Z"/>
      <path class="cls-3" d="m171.69,202.42h3.34v14.68c.02,1.55.45,2.73,1.3,3.54.83.85,1.89,1.28,3.19,1.28s2.38-.43,3.22-1.28c.83-.81,1.25-1.99,1.27-3.54v-14.68h3.34v15.04c-.04,2.39-.79,4.29-2.25,5.69-1.47,1.45-3.33,2.18-5.58,2.2-2.21-.02-4.05-.75-5.53-2.2-1.51-1.4-2.28-3.3-2.3-5.69v-15.05Z"/>
      <path class="cls-3" d="m196.24,219.66c1.75,1.49,3.84,2.25,6.26,2.27,2.86-.04,4.31-1.1,4.36-3.17.02-1.7-.94-2.72-2.87-3.06-.89-.12-1.86-.26-2.92-.42-1.89-.32-3.34-1.05-4.32-2.17-1.02-1.16-1.53-2.56-1.53-4.22,0-1.99.64-3.59,1.92-4.81,1.24-1.21,2.99-1.82,5.27-1.84,2.74.06,5.12.85,7.14,2.35l-1.86,2.83c-1.65-1.12-3.47-1.71-5.46-1.75-1.03,0-1.88.27-2.57.8-.72.55-1.08,1.37-1.1,2.47,0,.66.25,1.25.74,1.78.49.54,1.28.92,2.37,1.12.6.1,1.43.22,2.48.36,2.07.29,3.59,1.06,4.58,2.3.98,1.22,1.47,2.63,1.47,4.25-.11,4.35-2.69,6.56-7.73,6.62-3.26,0-6.06-1.04-8.41-3.11l2.19-2.59Z"/>
      <path class="cls-3" d="m225.48,212.66h7.83v4.63c-.04,2.27-.8,4.18-2.27,5.72-1.48,1.53-3.34,2.31-5.59,2.35-1.73-.04-3.18-.48-4.33-1.31-1.18-.8-2.03-1.73-2.57-2.78-.16-.34-.31-.67-.44-.98-.12-.32-.22-.73-.3-1.22-.15-.92-.23-2.67-.23-5.27s.08-4.41.23-5.3c.16-.89.41-1.62.74-2.17.53-1.05,1.39-1.99,2.57-2.81,1.16-.83,2.6-1.26,4.33-1.28,2.12.02,3.86.67,5.2,1.95,1.34,1.29,2.18,2.89,2.54,4.79h-3.54c-.27-.92-.77-1.7-1.48-2.35-.75-.62-1.65-.93-2.72-.96-.79.02-1.46.18-2.03.48-.57.31-1.04.7-1.39,1.17-.43.49-.72,1.12-.86,1.89-.16.81-.24,2.34-.24,4.58s.08,3.76.24,4.55c.14.79.43,1.43.86,1.92.35.47.82.85,1.39,1.14.56.34,1.24.52,2.03.52,1.3,0,2.38-.46,3.22-1.38.85-.88,1.28-2.03,1.3-3.46v-1.19h-4.5v-3.24Z"/>
      <path class="cls-3" d="m241.53,202.42h14.07v3.24h-10.74v6.51h9.17v3.05h-9.17v6.7h10.74v3.24h-14.07v-22.75Z"/>
      <path class="cls-3" d="m263.23,202.42h8.61c1.84,0,3.33.5,4.49,1.5,1.4,1.13,2.12,2.75,2.18,4.85-.04,3.09-1.46,5.19-4.25,6.3l5.1,10.09h-3.96l-4.56-9.72h-4.27v9.72h-3.34v-22.75Zm3.34,9.97h5.06c1.25-.02,2.19-.4,2.82-1.13.62-.68.92-1.51.92-2.5-.02-1.19-.39-2.05-1.11-2.58-.57-.47-1.38-.7-2.45-.7h-5.24v6.91Z"/>
      <path class="cls-3" d="m299.27,220.08h-8.36l-1.69,5.09h-3.54l8.01-22.75h2.8l8.01,22.75h-3.52l-1.71-5.09Zm-8.39-22.65h3.34v3.43h-3.34v-3.43Zm7.44,19.59l-3.19-9.95h-.06l-3.19,9.95h6.44Zm-1.8-19.59h3.34v3.43h-3.34v-3.43Z"/>
      <path class="cls-3" d="m313.57,205.48h-6.04v-3.06h15.42v3.06h-6.04v19.69h-3.34v-19.69Z"/>
      <path class="cls-3" d="m330.15,202.42h14.07v3.24h-10.74v6.51h9.17v3.05h-9.17v6.7h10.74v3.24h-14.07v-22.75Z"/>
      <path class="cls-2" d="m363.07,213.79c0-2.65.08-4.42.23-5.31.16-.9.41-1.62.74-2.17.53-1.05,1.39-1.98,2.57-2.8,1.16-.83,2.6-1.25,4.33-1.27,1.75.02,3.21.45,4.38,1.28,1.16.82,1.99,1.76,2.51,2.81.37.55.63,1.27.77,2.17.13.89.2,2.66.2,5.3s-.07,4.36-.2,5.27c-.14.92-.4,1.65-.77,2.2-.51,1.05-1.35,1.98-2.51,2.78-1.17.83-2.63,1.27-4.38,1.31-1.73-.04-3.18-.48-4.33-1.31-1.18-.8-2.03-1.73-2.57-2.78-.16-.34-.31-.67-.44-.98-.12-.32-.22-.73-.3-1.22-.15-.92-.23-2.67-.23-5.27Zm3.34,0c0,2.24.08,3.76.24,4.55.14.79.43,1.43.86,1.92.35.47.82.85,1.39,1.14.56.34,1.24.52,2.03.52s1.49-.17,2.07-.52c.55-.29,1-.67,1.33-1.14.43-.49.73-1.13.89-1.92.15-.79.23-2.31.23-4.55s-.08-3.77-.23-4.58c-.16-.77-.46-1.4-.89-1.89-.33-.47-.78-.86-1.33-1.17-.58-.3-1.28-.46-2.07-.48-.79.02-1.46.18-2.03.48-.58.31-1.04.7-1.39,1.17-.43.49-.72,1.12-.86,1.89-.16.81-.24,2.34-.24,4.58Z"/>
      <path class="cls-2" d="m386.76,202.42h3.34v14.68c.02,1.55.45,2.73,1.3,3.54.83.85,1.89,1.28,3.19,1.28s2.38-.43,3.22-1.28c.83-.81,1.25-1.99,1.27-3.54v-14.68h3.34v15.04c-.04,2.39-.79,4.29-2.25,5.69-1.47,1.45-3.33,2.18-5.58,2.2-2.21-.02-4.05-.75-5.53-2.2-1.51-1.4-2.28-3.3-2.3-5.69v-15.05Z"/>
      <path class="cls-2" d="m415.54,205.48h-6.04v-3.06h15.42v3.06h-6.04v19.69h-3.33v-19.69Z"/>
      <path class="cls-2" d="m432.13,202.42h3.33v19.5h10.74v3.24h-14.07v-22.75Z"/>
      <path class="cls-2" d="m453.82,202.42h14.07v3.24h-10.74v6.51h9.17v3.05h-9.17v6.7h10.74v3.24h-14.07v-22.75Z"/>
      <path class="cls-2" d="m480.44,205.48h-6.04v-3.06h15.42v3.06h-6.04v19.69h-3.33v-19.69Z"/>
    </g>
    <g id="H_G_O" data-name="H G O">
      <path class="cls-2" d="m158.25,171.13h-22.67v-47.86h-71.19v47.86h-22.67V54.26h22.67v48.02h71.19v-48.02h22.67v116.87Z"/>
      <path class="cls-2" d="m322.3,76.09v13.1h-20.99v-6.88c0-2.01-.67-3.69-2.01-5.04s-2.97-2.02-4.87-2.02h-68c-1.9,0-3.56.67-4.95,2.02-1.4,1.34-2.1,3.02-2.1,5.04v60.95c0,1.9.7,3.53,2.1,4.87,1.4,1.34,3.05,2.01,4.95,2.01h68c1.9,0,3.53-.67,4.87-2.01,1.34-1.34,2.01-2.96,2.01-4.87v-13.6h-37.95v-19.14h58.94v38.79c0,6.04-2.13,11.2-6.38,15.45-4.26,4.26-9.4,6.38-15.45,6.38h-80.09c-6.04,0-11.19-2.12-15.45-6.38-4.26-4.25-6.38-9.4-6.38-15.45v-73.21c0-5.93,2.12-11.05,6.38-15.36,4.25-4.31,9.4-6.46,15.45-6.46h80.09c6.04,0,11.19,2.16,15.45,6.46,4.25,4.31,6.38,9.43,6.38,15.36Z"/>
      <path class="cls-2" d="m464.19,54.26c7.05,0,13.1,2.52,18.13,7.56,5.04,5.04,7.56,11.08,7.56,18.13v65.49c0,7.05-2.52,13.1-7.56,18.13-5.04,5.04-11.08,7.56-18.13,7.56h-75.9c-7.17,0-13.24-2.52-18.22-7.56-4.98-5.04-7.47-11.08-7.47-18.13v-65.49c0-7.05,2.49-13.1,7.47-18.13,4.98-5.04,11.05-7.56,18.22-7.56h75.9Zm4.7,85.3v-53.73c0-2.91-1.04-5.4-3.11-7.47-2.07-2.07-4.56-3.11-7.47-3.11h-64.31c-2.91,0-5.4,1.04-7.47,3.11-2.07,2.07-3.11,4.56-3.11,7.47v53.73c0,2.91,1.03,5.4,3.11,7.47,2.07,2.07,4.56,3.11,7.47,3.11h64.31c2.91,0,5.4-1.03,7.47-3.11,2.07-2.07,3.11-4.56,3.11-7.47Z"/>
    </g>
    <g id="WashingMashine">
      <path class="cls-2" d="m659.6,86.08s0,2.51,0,6.83c0,21.63,0,43.25,0,64.88,0,21.73,0,43.46,0,65.19,0,2.15,0,2.16-2.12,2.16-42.68-.01-85.35-.02-128.03-.03q-2.23,0-2.24-2.05c0-43.25,0-86.5,0-129.75,0-3.84,0-7.22,0-7.22m108.08,66.18c.07-23.46-18.86-42.63-42.22-42.76-23.73-.13-42.95,18.95-42.97,42.67-.02,23.48,18.98,42.58,42.49,42.69,23.51.11,42.63-18.96,42.71-42.6Z"/>
      <path class="cls-2" d="m570.59,80.87h89c-.08-6.37.05-14.24-.11-20.61-.03-1.34-.73-2.84-1.54-3.95-1.25-1.72-3.26-2.06-5.34-2.05-26.91.03-53.81.04-80.72.05-.43,0-.86,0-1.29,0v26.56Zm65.21-17.96c2.84,0,5.14,2.3,5.14,5.14s-2.3,5.14-5.14,5.14-5.14-2.3-5.14-5.14,2.3-5.14,5.14-5.14Zm-14.63,0c2.84,0,5.14,2.3,5.14,5.14s-2.3,5.14-5.14,5.14-5.14-2.3-5.14-5.14,2.3-5.14,5.14-5.14Z"/>
      <path class="cls-2" d="m566.68,54.31c-10.86,0-21.71,0-32.57.02-4.51,0-6.89,2.38-6.9,6.84,0,5.85,0,13.84,0,19.69h39.46s0-26.56,0-26.56Zm-14.54,13.52h-15.77c-.91,0-1.65-.74-1.65-1.65s.74-1.65,1.65-1.65h15.77c.91,0,1.65.74,1.65,1.65s-.74,1.65-1.65,1.65Z"/>
      <path class="cls-2" d="m625.4,144.23c3.3,9.29,1.61,25.58-11.77,36.03-12.7,9.91-30.68,9.53-43.03-.91-12.55-10.6-13.87-26.75-10.42-35.79,0,0,6.28,12.83,16.45,15,4.65.99,12.61.96,23.99-9.08,8.93-7.88,24.68-5.55,24.78-5.25Z"/>
    </g>
  </g>
</svg>